<svg width="200" height="200" viewBox="0 0 200 200" fill="none" xmlns="http://www.w3.org/2000/svg">
<path d="M159.7 162.892C146.025 142.058 129.125 135.517 108.333 133.858V145.833C108.333 150.283 106.6 154.467 103.45 157.617C97.15 163.917 86.1417 163.875 79.925 157.658L27.4833 105.933C26.696 105.158 26.0707 104.234 25.6439 103.214C25.2171 102.195 24.9973 101.101 24.9973 99.9958C24.9973 98.8907 25.2171 97.7967 25.6439 96.7774C26.0707 95.758 26.696 94.8337 27.4833 94.0583L79.8833 42.3667C86.1667 36.075 97.1583 36.0667 103.458 42.375C106.6 45.525 108.333 49.7083 108.333 54.1583V68.3583C146.825 76.1333 175 110 175 149.992V158.325C175.005 160.121 174.428 161.871 173.357 163.312C172.286 164.754 170.777 165.81 169.056 166.324C167.335 166.838 165.494 166.781 163.808 166.163C162.121 165.544 160.681 164.397 159.7 162.892ZM100.192 116.758C118.583 117.225 138.842 120.042 156.508 134.433C153.32 121.099 146.09 109.076 135.808 100.007C125.527 90.9375 112.694 85.2656 99.0667 83.7667C94.8667 83.3 91.6667 83.3333 91.6667 83.3333V54.1917L45.2 99.9917L91.6667 145.825V116.667L100.192 116.758Z" fill="#FFFDFD"/>
</svg>
